<svg xmlns="http://www.w3.org/2000/svg" viewBox="0 0 49.47 32.93"><defs><style>.cls-1,.cls-2{fill:none;stroke-linejoin:round;}.cls-1{stroke:#3681ee;}.cls-2{stroke:#fff;}</style></defs><title>Fichier 1</title><g id="Calque_2" data-name="Calque 2"><g id="Layer_1" data-name="Layer 1"><path class="cls-1" d="M43.28,19.43a17.56,17.56,0,0,0,.63-4.64,4.75,4.75,0,0,0-9.5,0,17.11,17.11,0,0,0,.67,4.7,5.07,5.07,0,0,0,4.08,2.65A5.08,5.08,0,0,0,43.28,19.43Z"/><path class="cls-1" d="M29.28,32.43H49c0-4.33-3.41-10.6-6.55-9a11.12,11.12,0,0,1-3.3,1.27,10.14,10.14,0,0,1-2.95-1.1"/><path class="cls-1" d="M6.19,19.43a17.56,17.56,0,0,1-.63-4.64,4.75,4.75,0,0,1,9.49,0,17.1,17.1,0,0,1-.66,4.7,5.08,5.08,0,0,1-4.09,2.65A5.06,5.06,0,0,1,6.19,19.43Z"/><path class="cls-1" d="M20.19,32.43H.5c0-4.33,3.41-10.6,6.55-9a11.12,11.12,0,0,0,3.3,1.27,10.14,10.14,0,0,0,3-1.1"/><path class="cls-2" d="M30.64,13.89c.57-1,.9-5.39.9-6.62A6.77,6.77,0,0,0,18,7.27c0,1.27.34,5.69.94,6.7,1.18,2,3.35,3.78,5.83,3.78S29.47,15.91,30.64,13.89Z"/><path class="cls-2" d="M29.42,19.54a15.71,15.71,0,0,1-4.71,1.8A15.71,15.71,0,0,1,20,19.54c-4.47-2.24-9.34,6.72-9.34,12.89H38.75C38.75,26.26,33.89,17.3,29.42,19.54Z"/></g></g></svg>