<svg id="Calque_1" data-name="Calque 1" xmlns="http://www.w3.org/2000/svg" xmlns:xlink="http://www.w3.org/1999/xlink" viewBox="0 0 1807.14 374.75"><defs><style>.cls-1,.cls-3{fill:none;}.cls-2{clip-path:url(#clip-path);}.cls-3{stroke:#3681ee;stroke-miterlimit:10;stroke-width:7.5px;}.cls-4,.cls-5{fill:#f2f2f2;}.cls-5{opacity:0.89;}.cls-5,.cls-6,.cls-7,.cls-8{isolation:isolate;}.cls-7,.cls-8{font-size:21px;font-family:OpenSans-Bold, Open Sans;font-weight:700;}.cls-7{fill:#3c84ee;}.cls-8,.cls-9{fill:#3681ee;}</style><clipPath id="clip-path" transform="translate(-56.57 -353.05)"><rect class="cls-1" width="1920" height="1080"/></clipPath></defs><title>Web 1920 – 3</title><g class="cls-2"><g id="Web_1920_3" data-name="Web 1920 3"><g id="Groupe_28" data-name="Groupe 28"><path id="Tracé_534" data-name="Tracé 534" class="cls-3" d="M454.57,601.57c99.64,0,99.64-119.22,199.28-119.22s99.64,119.22,199.28,119.22,99.63-119.22,199.27-119.22S1152,601.57,1251.68,601.57,1351.32,482.35,1451,482.35" transform="translate(-56.57 -353.05)"/></g><circle id="Ellipse_38-2" data-name="Ellipse 38-2" class="cls-4" cx="594.67" cy="265.57" r="107.18"/><circle id="Ellipse_39-2" data-name="Ellipse 39-2" class="cls-4" cx="994.99" cy="267.57" r="107.18"/><circle id="Ellipse_40-2" data-name="Ellipse 40-2" class="cls-5" cx="1392.3" cy="265.57" r="107.18"/><circle id="Ellipse_41-2" data-name="Ellipse 41-2" class="cls-4" cx="797.08" cy="109.18" r="107.18"/><circle id="Ellipse_42-2" data-name="Ellipse 42-2" class="cls-4" cx="1196.63" cy="107.18" r="107.18"/><circle id="Ellipse_43-2" data-name="Ellipse 43-2" class="cls-4" cx="398.27" cy="107.18" r="107.18"/><circle id="Ellipse_44-2" data-name="Ellipse 44-2" class="cls-5" cx="1595.3" cy="109.57" r="107.18"/><g id="BUSINESS_MODEL" data-name="BUSINESS MODEL" class="cls-6"><text class="cls-7" transform="translate(1341.4 261.54)">BUSINESS </text><text class="cls-7" transform="translate(1356.51 289.54)">MODEL</text></g><g id="LANCEMENT_PRODUIT" data-name="LANCEMENT PRODUIT" class="cls-6"><text class="cls-7" transform="translate(1132.05 101.3)">LANCEMENT</text><text class="cls-7" transform="translate(1149.58 129.3)">PRODUIT</text></g><g id="BILAN_ROADMAP" data-name="BILAN ROADMAP" class="cls-6"><text class="cls-7" transform="translate(1563.1 100.99)">BILAN</text><text class="cls-7" transform="translate(1530.91 128.99)">&amp; ROADMAP</text></g><g id="HUMAN_PROJECT_FIT" data-name="HUMAN PROJECT FIT" class="cls-6"><text class="cls-7" transform="translate(553.48 261.22)">HUMAN</text><text class="cls-7" transform="translate(533.07 289.22)">PROJECT FIT</text></g><g id="PROJECT_MARKET_FIT" data-name="PROJECT MARKET FIT" class="cls-6"><text class="cls-7" transform="translate(753.11 101.3)">PROJECT</text><text class="cls-7" transform="translate(736.06 129.3)">MARKET FIT</text></g><g id="PRODUIT_MINIMUM_VIABLE" data-name="PRODUIT MINIMUM VIABLE" class="cls-6"><text class="cls-7" transform="translate(949.59 261.54)">PRODUIT</text><text class="cls-7" transform="translate(904.48 289.54)">MINIMUM VIABLE</text></g><circle id="Ellipse_45-2" data-name="Ellipse 45-2" class="cls-5" cx="200.3" cy="265.57" r="107.18"/><g id="VISION_INSPIRATION" data-name="VISION INSPIRATION" class="cls-6"><text class="cls-7" transform="translate(359.18 100.99)">VISION </text><text class="cls-7" transform="translate(320 128.99)">&amp; INSPIRATION</text></g><g id="Groupe_29" data-name="Groupe 29"><path id="Tracé_534-2" data-name="Tracé 534-2" class="cls-3" d="M1251.57,601.57c99.64,0,99.64-119.22,199.28-119.22s99.64,119.22,199.28,119.22,99.63-119.22,199.27-119.22" transform="translate(-56.57 -353.05)"/></g><g id="Groupe_30" data-name="Groupe 30"><path id="Tracé_534-3" data-name="Tracé 534-3" class="cls-3" d="M56.57,601.57c99.64,0,99.64-119.22,199.28-119.22s99.64,119.22,199.28,119.22S554.76,482.35,654.4,482.35" transform="translate(-56.57 -353.05)"/></g><g id="DIAGNOSTIC_CADRAGE" data-name="DIAGNOSTIC CADRAGE" class="cls-6"><text class="cls-8" transform="translate(135.69 261.54)">DIAGNOSTIC</text><text class="cls-8" transform="translate(140.74 289.54)">&amp; CADRAGE</text></g><path id="Tracé_547" data-name="Tracé 547" class="cls-9" d="M1847.82,467.42l15.9,14.42-15.9,15.62Z" transform="translate(-56.57 -353.05)"/><g id="DIAGNOSTIC_CADRAGE-2" data-name="DIAGNOSTIC CADRAGE-2" class="cls-6"><text class="cls-8" transform="translate(135.69 261.54)">DIAGNOSTIC</text><text class="cls-8" transform="translate(140.74 289.54)">&amp; CADRAGE</text></g></g></g></svg>