<svg id="Calque_1" data-name="Calque 1" xmlns="http://www.w3.org/2000/svg" xmlns:xlink="http://www.w3.org/1999/xlink" viewBox="0 0 1375 757"><defs><style>.cls-1,.cls-8{fill:none;}.cls-2{clip-path:url(#clip-path);}.cls-3,.cls-4{fill:#f2f2f2;}.cls-3{opacity:0.5;}.cls-10,.cls-3,.cls-6,.cls-7{isolation:isolate;}.cls-5{fill:#f5f5f5;}.cls-7{font-size:25px;}.cls-7,.cls-9{fill:#3681ee;}.cls-10,.cls-7{font-family:OpenSans-Bold, Open Sans;font-weight:700;}.cls-8{stroke:#3681ee;stroke-width:7.5px;}.cls-10{font-size:66px;fill:#fff;}</style><clipPath id="clip-path" transform="translate(-273 -162)"><rect class="cls-1" width="1920" height="1080"/></clipPath></defs><title>Web 1920 – 1</title><g class="cls-2"><g id="Web_1920_1" data-name="Web 1920 1"><path id="Rectangle_6-2" data-name="Rectangle 6-2" class="cls-3" d="M1259.5,162h10c209,0,378.5,169.46,378.5,378.5h0c0,209-169.46,378.5-378.5,378.5h-10c-209,0-378.5-169.46-378.5-378.5h0C881,331.46,1050.46,162,1259.5,162Z" transform="translate(-273 -162)"/><ellipse id="Ellipse_36-2" data-name="Ellipse 36-2" class="cls-4" cx="996.84" cy="378.23" rx="93.18" ry="92.18"/><ellipse id="Ellipse_37-2" data-name="Ellipse 37-2" class="cls-4" cx="996.84" cy="649.23" rx="93.18" ry="92.18"/><rect id="Rectangle_5-2" data-name="Rectangle 5-2" class="cls-3" width="767" height="757"/><rect id="Rectangle_2-2" data-name="Rectangle 2-2" class="cls-4" x="69" y="42" width="218" height="130"/><rect id="Rectangle_3-2" data-name="Rectangle 3-2" class="cls-5" x="577" y="313" width="218" height="130" rx="29" ry="29"/><rect id="Rectangle_4-2" data-name="Rectangle 4-2" class="cls-4" x="69" y="582" width="218" height="130"/><g id="Grand_groupe" data-name="Grand groupe" class="cls-6"><text class="cls-7" transform="translate(93 117)">Grand groupe</text></g><g id="Intrapreneur" class="cls-6"><text class="cls-7" transform="translate(605 388)">Intrapreneur</text></g><g id="Experts" class="cls-6"><text class="cls-7" transform="translate(131 657)">Experts</text></g><line id="Ligne_1" data-name="Ligne 1" class="cls-8" x1="315.5" y1="107.5" x2="878.5" y2="107.5"/><path id="Tracé_535" data-name="Tracé 535" class="cls-9" d="M1148.82,254.42l15.9,14.42-15.9,15.62Z" transform="translate(-273 -162)"/><ellipse id="Ellipse_32-2" data-name="Ellipse 32-2" class="cls-4" cx="996.84" cy="106.23" rx="93.18" ry="92.18"/><g id="Responsable_programme" data-name="Responsable programme" class="cls-6"><text class="cls-7" transform="translate(918.49 100.35)">Responsable</text><text class="cls-7" transform="translate(924.03 134.35)">programme</text></g><g id="Mentors" class="cls-6"><text class="cls-7" transform="translate(944.64 388.35)">Mentors</text></g><g id="Experts-2" class="cls-6"><text class="cls-7" transform="translate(950.24 659.35)">Experts</text></g><path id="Tracé_536" data-name="Tracé 536" class="cls-9" d="M588.72,284.46,572.82,270l15.9-15.62Z" transform="translate(-273 -162)"/><line id="Ligne_4" data-name="Ligne 4" class="cls-8" x1="822.5" y1="380.5" x2="878.5" y2="380.5"/><path id="Tracé_537" data-name="Tracé 537" class="cls-9" d="M1148.82,527.42l15.9,14.42-15.9,15.62Z" transform="translate(-273 -162)"/><line id="Ligne_5" data-name="Ligne 5" class="cls-8" x1="309.5" y1="570.5" x2="560.75" y2="399.2"/><path id="Tracé_538" data-name="Tracé 538" class="cls-9" d="M815.49,555.59l21.34,2.32-3.68,22Z" transform="translate(-273 -162)"/><path id="Tracé_539" data-name="Tracé 539" class="cls-9" d="M1095.72,557.46,1079.82,543l15.9-15.62Z" transform="translate(-273 -162)"/><line id="Ligne_6" data-name="Ligne 6" class="cls-8" x1="923.5" y1="570.5" x2="805.65" y2="421.33"/><path id="Tracé_540" data-name="Tracé 540" class="cls-9" d="M1075.39,601.57l.46-21.45,22.21,1.75Z" transform="translate(-273 -162)"/><line id="Ligne_7" data-name="Ligne 7" class="cls-8" x1="991.71" y1="230.17" x2="991.71" y2="266.17"/><path id="Tracé_541" data-name="Tracé 541" class="cls-9" d="M1279.79,416.5l-14.42,15.89-15.62-15.89Z" transform="translate(-273 -162)"/><path id="Tracé_542" data-name="Tracé 542" class="cls-9" d="M1249.75,392.39l14.42-15.89,15.62,15.89Z" transform="translate(-273 -162)"/><g id="CLIENT" class="cls-6"><text class="cls-10" transform="translate(234 396)">CLIENT</text></g><g id="DEOLIS" class="cls-6"><text class="cls-10" transform="translate(1116 396)">DEOLIS</text></g><line id="Ligne_8" data-name="Ligne 8" class="cls-8" x1="991.71" y1="230.17" x2="991.71" y2="266.17"/><path id="Tracé_544" data-name="Tracé 544" class="cls-9" d="M1249.75,392.39l14.42-15.89,15.62,15.89Z" transform="translate(-273 -162)"/><path id="Tracé_545" data-name="Tracé 545" class="cls-9" d="M1090.87,458.59l-21.44,1,.2-22.28Z" transform="translate(-273 -162)"/><line id="Ligne_9" data-name="Ligne 9" class="cls-8" x1="900.41" y1="190.73" x2="805.5" y2="286.5"/><path id="Tracé_546" data-name="Tracé 546" class="cls-9" d="M1162.67,342.3l21.44-1-.2,22.28Z" transform="translate(-273 -162)"/><path id="Tracé_548" data-name="Tracé 548" class="cls-9" d="M587.39,356.26l-7.62-20.07,21.26-6.7Z" transform="translate(-273 -162)"/><line id="Ligne_10" data-name="Ligne 10" class="cls-8" x1="552.56" y1="295.05" x2="315.5" y2="178.5"/><path id="Tracé_549" data-name="Tracé 549" class="cls-9" d="M832.15,443.63l7.62,20.06-21.26,6.71Z" transform="translate(-273 -162)"/></g></g></svg>